<?xml version="1.0" encoding="UTF-8"?>
<!-- Generator: Adobe Illustrator 19.1.0, SVG Export Plug-In . SVG Version: 6.00 Build 0)  -->
<svg version="1.1" id="Layer_1" xmlns="http://www.w3.org/2000/svg" xmlns:xlink="http://www.w3.org/1999/xlink" x="0px" y="0px" viewBox="0 0 51.6 30" style="enable-background:new 0 0 51.6 30;" xml:space="preserve">
<style type="text/css">
	.st0{fill:#AB9768;}
</style>
<g>
	<path class="st0" d="M49.6,4H2C0.9,4,0,3.1,0,2v0c0-1.1,0.9-2,2-2l47.6,0c1.1,0,2,0.9,2,2v0C51.6,3.1,50.7,4,49.6,4z"/>
	<path class="st0" d="M49.6,17H2c-1.1,0-2-0.9-2-2v0c0-1.1,0.9-2,2-2h47.6c1.1,0,2,0.9,2,2v0C51.6,16.1,50.7,17,49.6,17z"/>
	<path class="st0" d="M49.6,30H2c-1.1,0-2-0.9-2-2v0c0-1.1,0.9-2,2-2h47.6c1.1,0,2,0.9,2,2v0C51.6,29.1,50.7,30,49.6,30z"/>
</g>
</svg>