<?xml version="1.0" encoding="UTF-8"?>
<!-- Generator: Adobe Illustrator 19.1.0, SVG Export Plug-In . SVG Version: 6.00 Build 0)  -->
<svg version="1.1" id="Layer_1" xmlns="http://www.w3.org/2000/svg" xmlns:xlink="http://www.w3.org/1999/xlink" x="0px" y="0px" viewBox="0 0 481.8 354.2" style="enable-background:new 0 0 481.8 354.2;" xml:space="preserve">
<style type="text/css">
	.st0{fill:#6D6E70;}
	.st1{fill:url(#SVGID_1_);}
	.st2{fill:url(#SVGID_2_);}
	.st3{fill:url(#SVGID_3_);}
	.st4{fill:url(#SVGID_4_);}
	.st5{fill:url(#SVGID_5_);}
	.st6{fill:url(#SVGID_6_);}
	.st7{fill:url(#SVGID_7_);}
	.st8{fill:url(#SVGID_8_);}
	.st9{fill:url(#SVGID_9_);}
	.st10{fill:url(#SVGID_10_);}
	.st11{fill:url(#SVGID_11_);}
	.st12{fill:url(#SVGID_12_);}
	.st13{fill:#86754D;}
</style>
<g>
	<g>
		<path class="st0" d="M19.5,250.2l0-0.5c1.2-0.2,2.2-0.7,2.7-1.4c0.4-0.5,0.7-1.7,0.7-3.3v-13.1c0-1-0.1-1.7-0.2-2.2    c-0.1-0.5-0.3-0.9-0.6-1.3c-0.6-0.7-1.4-1.1-2.6-1.2v-0.5c0.4,0,0.7,0,0.7,0l2,0.1c0.7,0,1.4,0.1,2.1,0.1c1.3,0,2.8-0.1,4.4-0.2    c1.5-0.1,2.6-0.2,3.3-0.2c1.8,0,3.5,0.3,5,0.9c1.5,0.6,2.8,1.4,3.9,2.5c1.1,1.1,2,2.3,2.6,3.8c0.6,1.5,0.9,3.1,0.9,4.8    c0,1.8-0.3,3.4-0.9,4.9c-0.6,1.5-1.5,2.7-2.6,3.8c-1.1,1.1-2.5,1.9-4.1,2.4c-1.6,0.6-3.4,0.8-5.3,0.8c-0.7,0-1.9-0.1-3.4-0.2    c-1.1-0.1-2.2-0.2-3.2-0.2c-0.7,0-1.5,0-2.5,0.1l-2.3,0.2C19.8,250.2,19.7,250.2,19.5,250.2z M27,230.8l0,13.4    c0,1.5,0.1,2.6,0.4,3.2c0.2,0.6,0.7,1.1,1.3,1.5c0.6,0.3,1.3,0.5,2.2,0.5c1.3,0,2.5-0.3,3.7-0.8c1.1-0.5,2.1-1.3,2.9-2.4    c0.8-1,1.5-2.2,1.9-3.6c0.4-1.4,0.7-2.9,0.7-4.5c0-2.1-0.4-4-1.2-5.7c-0.8-1.7-1.9-3-3.3-3.9c-1.4-0.9-2.9-1.4-4.6-1.4    c-1.3,0-2.3,0.3-3,0.9C27.3,228.6,27,229.5,27,230.8z"/>
		<path class="st0" d="M50.4,250.2v-0.5c1.3-0.2,2.2-0.7,2.7-1.4c0.4-0.5,0.6-1.7,0.6-3.3v-13.1c0-1,0-1.8-0.2-2.3    c-0.1-0.5-0.3-0.9-0.6-1.2c-0.6-0.7-1.4-1.1-2.6-1.2v-0.5h10.8v0.5c-1.2,0.2-2.2,0.7-2.7,1.4c-0.2,0.3-0.4,0.7-0.5,1.2    c-0.1,0.5-0.2,1.2-0.2,2.1v13.1c0,1,0.1,1.7,0.2,2.2c0.1,0.5,0.3,0.9,0.7,1.3c0.6,0.7,1.4,1.1,2.6,1.3v0.5H50.4z"/>
		<path class="st0" d="M74.4,238.8v6.1c0,1,0.1,1.8,0.2,2.2c0.1,0.5,0.4,0.9,0.8,1.3c0.7,0.6,1.8,1.1,3.1,1.2v0.5H67v-0.5    c1.2-0.2,2.2-0.7,2.7-1.4c0.4-0.5,0.7-1.7,0.7-3.3v-13.1c0-1,0-1.8-0.2-2.3c-0.1-0.5-0.3-0.9-0.6-1.2c-0.6-0.6-1.4-1-2.6-1.2v-0.5    c0.2,0,0.3,0,0.4,0l1.5,0.1c0.6,0,1.3,0.1,2.1,0.1c1.3,0,2.4-0.1,3.5-0.2l2.4-0.2c0.8-0.1,1.5-0.1,2.3-0.1c2.7,0,4.8,0.5,6.3,1.6    c1.5,1.1,2.3,2.6,2.3,4.5c0,1.1-0.3,2.2-0.9,3.1c-0.6,0.9-1.4,1.7-2.4,2.2c-1.4,0.7-3.5,1.1-6.3,1.1h-0.7H74.4z M74.4,238.1h2.8    c1.8,0,3.2-0.3,4.2-0.9c0.7-0.4,1.3-1.1,1.7-1.9c0.4-0.8,0.6-1.8,0.6-2.8c0-1.7-0.5-3-1.5-4c-1-1-2.3-1.5-4-1.5    c-0.8,0-1.5,0.1-2.1,0.4c-0.6,0.2-1,0.6-1.2,1.1c-0.3,0.6-0.5,1.5-0.5,2.7V238.1z"/>
		<path class="st0" d="M104.3,226.6v0.5c-1.4,0.2-2.4,0.7-3,1.4c-0.3,0.3-0.5,0.7-0.6,1.2c-0.1,0.5-0.2,1.2-0.2,2.1v13.2    c0,0.9,0,1.5,0.1,2c0.1,0.5,0.3,0.9,0.5,1.2c0.5,0.7,1.5,1,3,1h0.4c0.8,0,1.5-0.1,2.3-0.3c0.7-0.2,1.5-0.6,2.3-1.2    c0.8-0.5,1.5-1.2,2.3-2c0.8-0.8,1.6-1.7,2.4-2.8h0.5l-2.1,7.2H93.2v-0.5c1.2-0.2,2.2-0.7,2.7-1.4c0.4-0.5,0.7-1.7,0.7-3.3v-13.1    c0-1-0.1-1.8-0.2-2.3c-0.1-0.5-0.3-0.9-0.6-1.2c-0.6-0.7-1.4-1.1-2.6-1.2v-0.5H104.3z"/>
		<path class="st0" d="M118.8,238.4c0-1.7,0.3-3.3,1-4.8c0.6-1.5,1.5-2.8,2.7-4c1.1-1.2,2.5-2,4-2.7c1.5-0.6,3.1-0.9,4.8-0.9    c2.2,0,4.3,0.5,6.2,1.7c1.9,1.1,3.4,2.6,4.5,4.5c1.1,1.9,1.7,4,1.7,6.2c0,1.7-0.3,3.2-0.9,4.8c-0.6,1.5-1.5,2.8-2.7,4    c-1.2,1.2-2.5,2.1-4,2.7c-1.5,0.7-3.1,1-4.7,1c-2.3,0-4.4-0.5-6.3-1.7c-1.9-1.1-3.4-2.6-4.5-4.5    C119.4,242.7,118.8,240.7,118.8,238.4z M123.2,238.3c0,1.7,0.2,3.3,0.6,4.7c0.4,1.5,0.9,2.7,1.6,3.7c0.7,1,1.6,1.8,2.6,2.3    c1,0.5,2.1,0.8,3.3,0.8c2,0,3.7-0.8,5.2-2.4c0.9-1,1.6-2.2,2.1-3.8c0.5-1.6,0.7-3.4,0.7-5.4c0-1.8-0.2-3.4-0.6-4.8    c-0.4-1.4-0.9-2.7-1.6-3.6c-0.7-1-1.5-1.8-2.5-2.3c-1-0.5-2.1-0.8-3.3-0.8c-1.2,0-2.3,0.3-3.3,0.8c-1,0.5-1.8,1.3-2.5,2.4    c-0.7,1-1.2,2.2-1.6,3.7C123.4,235,123.2,236.6,123.2,238.3z"/>
		<path class="st0" d="M165.5,249.1h-0.4l-9.4-18.8l-1,11.7c-0.1,0.6-0.1,1.3-0.1,1.8c0,1.7,0.3,3,1,3.9c0.7,0.9,1.8,1.5,3.3,1.9    v0.5h-9.4v-0.5c0.8-0.3,1.6-0.7,2.2-1.4c0.6-0.6,1.1-1.3,1.5-2.1c0.4-0.9,0.6-2.3,0.8-4.2l1.1-12.5c-0.4-0.8-0.9-1.4-1.5-1.8    c-0.6-0.4-1.3-0.5-2.1-0.6v-0.5h8.4c0,0.1-0.1,0.2-0.1,0.2c-0.2,0.5-0.3,0.9-0.3,1.2c0,0.6,0.3,1.4,0.9,2.6l6.7,13.3l5.5-12.9    c0.4-1,0.7-1.8,0.7-2.4c0-0.6-0.2-1.2-0.7-2.1h8.3v0.5c-1.2,0.2-2,0.5-2.5,1c-0.5,0.5-0.8,1.3-0.8,2.3c0,0.3,0,0.6,0.1,0.9l0,0.4    l1.4,12.8c0,0.2,0.1,0.3,0.1,0.5c0,0.1,0.1,0.5,0.1,1.1c0.2,1.1,0.5,2,1,2.5c0.5,0.5,1.3,0.9,2.4,1.1v0.5h-11v-0.5    c1.2-0.3,2.1-0.7,2.7-1.2c0.6-0.5,0.9-1.1,0.9-1.9c0-0.3,0-0.8-0.1-1.4l-1.7-14.8L165.5,249.1z"/>
		<path class="st0" d="M203.4,241.5h-8.9l-1,2.2c-0.5,1.1-0.7,2-0.7,2.7c0,0.6,0.1,1.1,0.4,1.6c0.3,0.4,0.7,0.8,1.2,1.1    c0.5,0.3,1.2,0.5,2.1,0.7v0.5h-9v-0.5c1.1-0.4,2-1,2.8-1.9c0.8-0.9,1.6-2.4,2.5-4.3l7.6-17.3h0.4l8.3,18.7c0,0,0,0,0.1,0.1    c0,0.1,0,0.1,0.1,0.2c0,0.1,0.1,0.1,0.1,0.2l0.8,1.6c0.4,0.8,0.9,1.5,1.4,1.9c0.5,0.4,1.2,0.7,2,0.9v0.5h-11v-0.5    c0.9-0.1,1.6-0.2,2-0.3c0.8-0.3,1.2-0.8,1.2-1.6c0-0.4-0.2-1-0.5-1.9L203.4,241.5z M203.1,240.7l-4.2-9.4l-4.1,9.4H203.1z"/>
		<path class="st0" d="M241.3,226.6l0.5,6.4h-0.6c-0.4-1.2-0.8-2.2-1.4-3.1c-0.6-0.9-1.3-1.5-2.1-2c-0.8-0.5-1.6-0.7-2.5-0.7    c-0.7,0-1.3,0.1-1.8,0.4c-0.5,0.3-0.9,0.7-1.1,1.2c-0.2,0.5-0.3,1.2-0.3,2.3v13.8c0,1,0.1,1.8,0.2,2.3c0.1,0.5,0.4,0.9,0.8,1.3    c0.7,0.6,1.7,1,3.1,1.2v0.5H224v-0.5c1.5-0.2,2.6-0.7,3.3-1.4c0.3-0.3,0.5-0.8,0.6-1.2c0.1-0.5,0.2-1.2,0.2-2.1v-13.8    c0-1.1-0.1-2-0.5-2.5c-0.2-0.4-0.6-0.8-1.1-1c-0.5-0.2-1-0.4-1.7-0.4c-1.3,0-2.5,0.5-3.6,1.5c-1.1,1-1.9,2.4-2.4,4.2h-0.5l0.5-6.4    H241.3z"/>
		<path class="st0" d="M276.6,227.1l1,5.8H277c-0.3-1-0.6-1.9-0.9-2.5c-0.3-0.6-0.6-1.1-1-1.5c-0.6-0.6-1.3-1.2-2.1-1.5    c-0.8-0.4-1.7-0.5-2.6-0.5c-1.3,0-2.3,0.3-3.1,1c-0.8,0.7-1.2,1.6-1.2,2.7c0,1.2,0.5,2.2,1.6,3c0.5,0.4,1.1,0.7,1.7,1    c0.6,0.3,1.6,0.7,2.9,1.3c0.9,0.3,1.7,0.7,2.3,1c0.6,0.3,1.1,0.5,1.5,0.8c0.4,0.2,0.8,0.5,1.1,0.8c1.6,1.3,2.4,3,2.4,5.1    c0,1.4-0.4,2.6-1.1,3.7c-0.7,1.1-1.8,2-3.1,2.6c-1.3,0.6-2.8,1-4.4,1c-1.1,0-2.4-0.2-3.9-0.5c-0.9-0.2-2-0.6-3.4-1.1l-0.5-0.2    l-0.5-6.6h0.5c0.5,1.8,1.3,3.3,2.5,4.7c1.5,1.8,3.3,2.7,5.3,2.7c1,0,2-0.2,2.8-0.6c0.8-0.4,1.4-0.9,1.9-1.6    c0.4-0.7,0.7-1.5,0.7-2.4c0-0.8-0.2-1.5-0.5-2.1c-0.3-0.6-0.9-1.3-1.7-1.8c-0.8-0.6-1.9-1.2-3.3-1.8c-2-0.9-3.3-1.5-3.7-1.7    c-0.8-0.5-1.5-1-2.1-1.5c-0.6-0.5-1-1.2-1.2-1.8c-0.3-0.6-0.4-1.3-0.4-2.1c0-1.2,0.3-2.2,0.9-3.1c0.6-0.9,1.4-1.7,2.5-2.2    c1.1-0.5,2.2-0.8,3.5-0.8c0.8,0,1.7,0.1,2.7,0.4l1,0.3c0.8,0.2,1.6,0.3,2.5,0.3H276.6z"/>
		<path class="st0" d="M306.1,226.8l2,6.2h-0.6c-0.6-1.1-1.2-2-1.8-2.8c-0.6-0.8-1.3-1.4-1.9-1.9c-0.7-0.5-1.4-0.8-2.1-1.1    c-0.8-0.2-1.6-0.3-2.6-0.3c-1.4,0-2.6,0.3-3.8,0.8c-1.2,0.5-2.2,1.3-3.1,2.2c-0.9,0.9-1.5,2.1-2,3.4c-0.5,1.3-0.7,2.7-0.7,4.2    c0,2.3,0.4,4.3,1.3,6.2c0.9,1.9,2.1,3.3,3.7,4.3c1.5,1.1,3.3,1.6,5.2,1.6c1.3,0,2.5-0.2,3.7-0.8c1.1-0.5,2.2-1.2,3-2.2    c0.9-0.9,1.7-2.2,2.3-3.6h0.7c-1,2.6-2.4,4.5-4.4,5.8c-2,1.3-4.3,2-7.2,2c-3.3,0-6-0.9-8.2-2.7c-0.9-0.8-1.7-1.7-2.3-2.6    c-0.6-1-1.1-2.1-1.4-3.2c-0.3-1.2-0.5-2.4-0.5-3.6c0-2.3,0.6-4.4,1.7-6.3c1.2-1.9,2.8-3.4,4.8-4.5c2-1.1,4.3-1.6,6.7-1.6    c1,0,2.4,0.1,4.1,0.4c1.2,0.2,2,0.3,2.6,0.3C305.6,226.9,305.8,226.9,306.1,226.8z"/>
		<path class="st0" d="M322.1,237.8v7.1c0,1,0.1,1.7,0.2,2.2c0.1,0.5,0.3,0.9,0.7,1.3c0.6,0.6,1.5,1,2.7,1.2v0.5h-11v-0.5    c1.2-0.2,2.1-0.7,2.7-1.4c0.4-0.5,0.7-1.7,0.7-3.3v-13.1c0-1-0.1-1.8-0.2-2.3c-0.1-0.5-0.3-0.9-0.6-1.2c-0.5-0.6-1.4-1-2.6-1.2    v-0.5c0.2,0,0.3,0,0.4,0l1.5,0.1c0.6,0,1.3,0.1,2.1,0.1c1.3,0,2.4-0.1,3.5-0.2l2.4-0.2c0.8-0.1,1.5-0.1,2.3-0.1    c1.3,0,2.6,0.1,3.6,0.4c1.1,0.3,2,0.7,2.7,1.2c0.7,0.5,1.3,1.1,1.7,1.9c0.4,0.7,0.6,1.6,0.6,2.5c0,1.5-0.5,2.8-1.6,3.6    c-1.1,0.9-2.6,1.4-4.7,1.5c1.3,0.5,2.4,1.2,3.3,2.1c0.9,0.9,2,2.3,3.2,4.3c1.4,2.2,2.5,3.8,3.3,4.7c0.8,0.9,1.7,1.5,2.7,1.9v0.5    c-1.3,0-2.3-0.1-3.2-0.3c-0.9-0.2-1.8-0.6-2.6-1.1c-1.1-0.7-2.1-1.6-3.1-2.7c-1-1.2-1.8-2.5-2.6-4l-0.9-1.9    c-0.4-0.9-0.8-1.6-1.2-2c-0.3-0.4-0.7-0.7-1.2-0.8c-0.5-0.2-1.1-0.2-1.9-0.2H322.1z M322.1,237.1h3.1c1.8,0,3.1-0.2,3.9-0.6    c0.7-0.3,1.2-0.9,1.6-1.7c0.4-0.7,0.6-1.6,0.6-2.6c0-1-0.2-1.9-0.7-2.7c-0.5-0.8-1.1-1.4-2-1.9c-0.8-0.4-1.8-0.7-2.9-0.7    c-1.6,0-2.7,0.5-3.2,1.5c-0.3,0.6-0.5,1.5-0.5,2.7V237.1z"/>
		<path class="st0" d="M366.1,226.6l0.6,6.4h-0.5c-0.6-2-1.5-3.5-2.7-4.4c-1.2-0.9-2.7-1.4-4.6-1.4h-1c-1.5,0-2.6,0.3-3.2,0.9    c-0.6,0.6-1,1.6-1,2.9v5.9h2.3c1.7,0,3-0.3,3.8-0.8c0.8-0.6,1.3-1.5,1.6-3h0.5v8.7h-0.5c-0.2-1.1-0.5-2-0.9-2.6    c-0.4-0.6-0.9-1-1.6-1.3c-0.7-0.2-1.6-0.4-2.8-0.4h-2.4v7.5c0,1.1,0.1,2,0.3,2.6c0.2,0.6,0.6,1,1.1,1.3c0.5,0.2,1.3,0.3,2.3,0.3    h1.6c1.6,0,3.1-0.5,4.5-1.5c1.6-1.1,3.1-2.6,4.6-4.5l0.1-0.2h0.6l-2,7.1h-20.4v-0.5c1.2-0.2,2.2-0.7,2.7-1.4    c0.4-0.5,0.6-1.7,0.6-3.3v-13.1c0-1,0-1.8-0.2-2.3c-0.1-0.5-0.3-0.9-0.6-1.2c-0.6-0.7-1.4-1.1-2.6-1.2v-0.5H366.1z"/>
		<path class="st0" d="M393.4,226.6l0.7,6.4h-0.5c-0.6-2-1.5-3.5-2.7-4.4c-1.2-0.9-2.7-1.4-4.6-1.4h-1c-1.5,0-2.6,0.3-3.2,0.9    c-0.6,0.6-0.9,1.6-0.9,2.9v5.9h2.3c1.7,0,3-0.3,3.8-0.8c0.8-0.6,1.4-1.5,1.6-3h0.5v8.7h-0.5c-0.2-1.1-0.5-2-0.9-2.6    c-0.4-0.6-0.9-1-1.6-1.3c-0.7-0.2-1.6-0.4-2.8-0.4h-2.3v7.5c0,1.1,0.1,2,0.3,2.6c0.2,0.6,0.6,1,1.1,1.3c0.5,0.2,1.3,0.3,2.3,0.3    h1.6c1.6,0,3.1-0.5,4.5-1.5c1.6-1.1,3.1-2.6,4.6-4.5l0.1-0.2h0.6l-2,7.1h-20.4v-0.5c1.2-0.2,2.1-0.7,2.7-1.4    c0.4-0.5,0.6-1.7,0.6-3.3v-13.1c0-1-0.1-1.8-0.2-2.3c-0.1-0.5-0.3-0.9-0.6-1.2c-0.6-0.7-1.4-1.1-2.6-1.2v-0.5H393.4z"/>
		<path class="st0" d="M424.9,250.7h-0.5l-19-20.2l0,11.6c0,1.3,0.1,2.3,0.2,3.1c0.2,0.8,0.4,1.5,0.7,2c0.8,1.3,2.1,2.1,3.8,2.4v0.5    h-9v-0.5c1.6-0.6,2.6-1.7,3.1-3.3c0.2-0.5,0.3-1.1,0.4-1.8c0.1-0.6,0.1-1.4,0.1-2.4v-12.4c-0.9-0.9-1.6-1.6-2.1-1.9    c-0.5-0.3-1-0.6-1.7-0.8v-0.5h6.7c0.3,0.5,0.6,0.9,0.9,1.3c0.1,0.1,0.2,0.2,0.4,0.4c0.2,0.2,0.3,0.4,0.4,0.4l0.3,0.3l14.6,15.6    v-11.9c0-1.2-0.1-2.2-0.5-3c-0.3-0.8-0.8-1.4-1.4-1.8c-0.7-0.4-1.5-0.7-2.6-0.9v-0.5h8.2v0.5c-1.2,0.3-2.1,0.9-2.5,1.7    c-0.4,0.8-0.6,2.1-0.6,4V250.7z"/>
		<path class="st0" d="M447.6,227.1l1,5.8h-0.6c-0.3-1-0.6-1.9-0.9-2.5c-0.3-0.6-0.6-1.1-1-1.5c-0.6-0.6-1.3-1.2-2.1-1.5    c-0.8-0.4-1.7-0.5-2.6-0.5c-1.3,0-2.3,0.3-3.1,1c-0.8,0.7-1.2,1.6-1.2,2.7c0,1.2,0.5,2.2,1.6,3c0.5,0.4,1.1,0.7,1.7,1    c0.6,0.3,1.6,0.7,2.9,1.3c0.9,0.3,1.7,0.7,2.3,1c0.6,0.3,1.1,0.5,1.5,0.8c0.4,0.2,0.8,0.5,1.1,0.8c1.6,1.3,2.4,3,2.4,5.1    c0,1.4-0.4,2.6-1.1,3.7c-0.7,1.1-1.8,2-3.1,2.6c-1.3,0.6-2.8,1-4.4,1c-1.1,0-2.4-0.2-3.9-0.5c-0.9-0.2-2-0.6-3.4-1.1l-0.5-0.2    l-0.5-6.6h0.5c0.5,1.8,1.3,3.3,2.4,4.7c1.5,1.8,3.3,2.7,5.3,2.7c1,0,2-0.2,2.8-0.6c0.8-0.4,1.4-0.9,1.9-1.6    c0.5-0.7,0.7-1.5,0.7-2.4c0-0.8-0.2-1.5-0.5-2.1c-0.4-0.6-0.9-1.3-1.7-1.8c-0.8-0.6-1.9-1.2-3.3-1.8c-2-0.9-3.3-1.5-3.7-1.7    c-0.8-0.5-1.5-1-2.1-1.5c-0.5-0.5-1-1.2-1.2-1.8c-0.3-0.6-0.4-1.3-0.4-2.1c0-1.2,0.3-2.2,0.9-3.1c0.6-0.9,1.4-1.7,2.5-2.2    c1.1-0.5,2.2-0.8,3.5-0.8c0.8,0,1.7,0.1,2.7,0.4l1,0.3c0.8,0.2,1.6,0.3,2.5,0.3H447.6z"/>
	</g>
	<g>
		<g>
			<linearGradient id="SVGID_1_" gradientUnits="userSpaceOnUse" x1="6.8916" y1="152.1772" x2="88.5448" y2="304.6017">
				<stop offset="0" style="stop-color:#BCA061"/>
				<stop offset="0.1845" style="stop-color:#AA925A"/>
				<stop offset="0.4536" style="stop-color:#968253"/>
				<stop offset="0.7249" style="stop-color:#8A784F"/>
				<stop offset="1" style="stop-color:#86754D"/>
			</linearGradient>
			<path class="st1" d="M49.2,155.7l1.6,16.1h-1.4c-1.5-5-3.7-8.6-6.7-11c-3-2.4-6.8-3.5-11.5-3.5h-2.4c-3.8,0-6.5,0.7-8,2.2     c-1.6,1.5-2.3,3.9-2.3,7.3v14.7h5.7c4.3,0,7.5-0.7,9.5-2.1c2-1.4,3.4-3.8,4.1-7.4h1.3v21.9h-1.3c-0.6-2.9-1.3-5.1-2.3-6.6     c-1-1.5-2.3-2.6-4.1-3.2c-1.7-0.6-4.1-0.9-7.1-0.9h-5.9v18.7c0,2.9,0.3,5,0.8,6.6c0.5,1.5,1.5,2.6,2.8,3.2     c1.3,0.6,3.2,0.9,5.6,0.9h4c3.9,0,7.6-1.2,11.1-3.6c3.9-2.7,7.7-6.5,11.5-11.3l0.3-0.5h1.5l-5.1,17.7H0v-1.4     c3.1-0.5,5.4-1.7,6.8-3.6c1.1-1.4,1.6-4.1,1.6-8.3v-32.6c0-2.6-0.1-4.5-0.4-5.7c-0.3-1.2-0.8-2.2-1.6-3c-1.4-1.6-3.6-2.7-6.4-3.1     v-1.3H49.2z"/>
			<linearGradient id="SVGID_2_" gradientUnits="userSpaceOnUse" x1="78.0921" y1="130.3519" x2="158.3807" y2="283.4928">
				<stop offset="0" style="stop-color:#BCA061"/>
				<stop offset="0.1845" style="stop-color:#AA925A"/>
				<stop offset="0.4536" style="stop-color:#968253"/>
				<stop offset="0.7249" style="stop-color:#8A784F"/>
				<stop offset="1" style="stop-color:#86754D"/>
			</linearGradient>
			<path class="st2" d="M107.8,212.1h-1l-23.6-47l-2.6,29.3c-0.1,1.6-0.2,3.1-0.2,4.6c0,4.2,0.9,7.4,2.6,9.7     c1.7,2.3,4.5,3.8,8.3,4.7v1.4H67.7v-1.4c2.1-0.7,3.9-1.9,5.6-3.4c1.6-1.5,2.9-3.3,3.7-5.3c0.9-2.2,1.6-5.7,2-10.6l2.7-31.2     c-1.1-2-2.3-3.5-3.8-4.4c-1.4-0.9-3.2-1.4-5.3-1.5v-1.3h20.9c-0.1,0.3-0.2,0.5-0.2,0.6c-0.5,1.3-0.8,2.4-0.8,3.1     c0,1.4,0.7,3.5,2.2,6.5l16.7,33.2l13.8-32.3c1.1-2.6,1.6-4.6,1.6-5.9c0-1.4-0.6-3.1-1.7-5.1H146v1.3c-2.9,0.4-5,1.3-6.3,2.5     c-1.3,1.3-1.9,3.2-1.9,5.6c0,0.8,0,1.5,0.1,2.2l0.1,1.1l3.6,32.1c0.1,0.4,0.1,0.8,0.1,1.1c0,0.3,0.2,1.2,0.4,2.7     c0.4,2.8,1.3,4.9,2.6,6.2c1.3,1.4,3.3,2.3,5.9,2.7v1.4h-27.5v-1.4c3-0.7,5.2-1.7,6.7-3c1.4-1.2,2.1-2.8,2.1-4.6     c0-0.7-0.1-1.9-0.3-3.5l-4.2-36.9L107.8,212.1z"/>
			<linearGradient id="SVGID_3_" gradientUnits="userSpaceOnUse" x1="150.4241" y1="133.2505" x2="226.4628" y2="242.7836">
				<stop offset="0" style="stop-color:#BCA061"/>
				<stop offset="0.1845" style="stop-color:#AA925A"/>
				<stop offset="0.4536" style="stop-color:#968253"/>
				<stop offset="0.7249" style="stop-color:#8A784F"/>
				<stop offset="1" style="stop-color:#86754D"/>
			</linearGradient>
			<path class="st3" d="M164.8,214.7v-1.4c3-0.5,5.3-1.7,6.7-3.6c1.1-1.4,1.6-4.2,1.6-8.3v-32.6c0-2.5-0.1-4.3-0.4-5.6     c-0.3-1.2-0.8-2.3-1.6-3.2c-1.4-1.6-3.5-2.7-6.3-3.1v-1.3l0.7,0l5.2,0.3c1.8,0.1,3.7,0.2,5.5,0.2c1.5,0,3.3-0.1,5.3-0.2     c2-0.1,3.6-0.2,4.7-0.4l4.4-0.5c1.6-0.2,3.2-0.3,4.8-0.3c3,0,5.7,0.3,8.1,1c2.4,0.7,4.5,1.7,6.2,3c1.7,1.3,3,2.8,3.9,4.6     c0.9,1.8,1.4,3.8,1.4,6c0,3.4-1.1,6.3-3.2,8.6c-2.1,2.3-5.3,4-9.4,5c3.4,0.3,6.4,1.3,9,2.7c2.6,1.5,4.6,3.4,6,5.8     c1.4,2.4,2.1,5.1,2.1,8c0,2.4-0.5,4.6-1.4,6.5c-0.9,1.9-2.3,3.6-4.1,5c-1.8,1.4-4,2.5-6.6,3.2c-2.6,0.7-5.4,1.1-8.4,1.1     c-1.6,0-3.9-0.1-6.9-0.4c-4.4-0.3-7.4-0.5-9-0.6c-2.6-0.1-5-0.2-7.2-0.2c-1.7,0-3.6,0.1-5.7,0.2l-4.5,0.3L164.8,214.7z      M183,182.9h7c4.2,0,7.3-0.8,9.5-2.5c1.5-1.1,2.7-2.6,3.6-4.5c0.9-1.9,1.3-3.9,1.3-5.9c0-2.5-0.5-4.8-1.6-6.8     c-1.1-2-2.6-3.5-4.5-4.7c-1.9-1.1-4-1.7-6.4-1.7c-1.9,0-3.5,0.3-4.8,1c-1.4,0.7-2.4,1.7-3.2,3c-0.7,1.3-1,3.4-1,6.2V182.9z      M183,184.6v18.2c0,3.7,0.9,6.4,2.6,7.9c1.7,1.5,4.6,2.3,8.7,2.3c4.7,0,8.3-1.3,10.7-4c2.4-2.7,3.6-5.9,3.6-9.9     c0-1.7-0.2-3.2-0.6-4.6c-0.4-1.4-1-2.7-1.9-3.9c-0.8-1.2-1.8-2.2-3-3.1c-1.1-0.8-2.5-1.5-3.9-1.9c-2-0.6-5-1-8.9-1H183z"/>
			<linearGradient id="SVGID_4_" gradientUnits="userSpaceOnUse" x1="217.1647" y1="145.5293" x2="299.8902" y2="254.5066">
				<stop offset="0" style="stop-color:#BCA061"/>
				<stop offset="0.1845" style="stop-color:#AA925A"/>
				<stop offset="0.4536" style="stop-color:#968253"/>
				<stop offset="0.7249" style="stop-color:#8A784F"/>
				<stop offset="1" style="stop-color:#86754D"/>
			</linearGradient>
			<path class="st4" d="M269.7,192.9h-22.3l-2.4,5.5c-1.1,2.7-1.7,4.9-1.7,6.7c0,1.5,0.3,2.8,1,3.9c0.7,1.1,1.7,2,3,2.7     c1.3,0.7,3.1,1.3,5.3,1.7v1.4h-22.4v-1.3c2.7-0.9,5-2.6,7-4.8c1.9-2.3,4-5.9,6.2-10.8l19.1-43.2h1.1l20.8,46.7     c0,0,0.1,0.1,0.2,0.2c0,0.1,0.1,0.3,0.2,0.4c0.1,0.1,0.2,0.3,0.2,0.5l1.9,3.9c1,2.1,2.2,3.7,3.5,4.7c1.3,1.1,3,1.8,5,2.2v1.4     h-27.6v-1.4c2.3-0.2,4-0.4,5-0.8c2.1-0.8,3.1-2.1,3.1-4.1c0-0.9-0.5-2.5-1.4-4.7L269.7,192.9z M268.9,191.1l-10.4-23.5     l-10.2,23.5H268.9z"/>
			<linearGradient id="SVGID_5_" gradientUnits="userSpaceOnUse" x1="293.5062" y1="129.3375" x2="369.6706" y2="257.1414">
				<stop offset="0" style="stop-color:#BCA061"/>
				<stop offset="0.1845" style="stop-color:#AA925A"/>
				<stop offset="0.4536" style="stop-color:#968253"/>
				<stop offset="0.7249" style="stop-color:#8A784F"/>
				<stop offset="1" style="stop-color:#86754D"/>
			</linearGradient>
			<path class="st5" d="M343,157.1l2.5,14.4H344c-0.8-2.6-1.5-4.6-2.3-6.1c-0.7-1.5-1.6-2.8-2.5-3.8c-1.5-1.6-3.3-2.9-5.3-3.8     c-2.1-0.9-4.2-1.4-6.5-1.4c-3.2,0-5.8,0.8-7.8,2.6c-2,1.7-3,3.9-3,6.7c0,3,1.3,5.4,3.9,7.4c1.4,1,2.8,1.9,4.3,2.6     c1.5,0.8,3.9,1.8,7.2,3.2c2.3,0.9,4.1,1.7,5.7,2.4c1.6,0.7,2.8,1.4,3.7,1.9c1,0.6,1.9,1.2,2.9,2c4,3.2,6,7.4,6,12.7     c0,3.4-0.9,6.5-2.8,9.3c-1.9,2.8-4.5,4.9-7.8,6.5c-3.3,1.6-7,2.4-11,2.4c-2.8,0-6-0.4-9.7-1.2c-2.2-0.5-5-1.4-8.5-2.8l-1.2-0.4     l-1.3-16.4h1.3c1.3,4.4,3.3,8.3,6.1,11.8c3.7,4.5,8.1,6.8,13.3,6.8c2.6,0,4.9-0.5,7-1.5c2-1,3.6-2.4,4.8-4.1     c1.2-1.7,1.7-3.7,1.7-6c0-2-0.4-3.8-1.3-5.4c-0.9-1.6-2.3-3.1-4.4-4.5c-2-1.4-4.8-2.9-8.3-4.4c-5.1-2.2-8.2-3.6-9.3-4.2     c-2.1-1.2-3.8-2.5-5.2-3.8c-1.4-1.4-2.4-2.9-3.1-4.5c-0.7-1.6-1-3.3-1-5.2c0-2.8,0.7-5.5,2.3-7.8c1.5-2.4,3.6-4.2,6.2-5.6     c2.6-1.4,5.6-2,8.8-2c2,0,4.3,0.3,6.8,1l2.6,0.7c1.9,0.5,4,0.8,6.2,0.8H343z"/>
			<linearGradient id="SVGID_6_" gradientUnits="userSpaceOnUse" x1="420.9868" y1="113.1938" x2="483.6871" y2="234.0378">
				<stop offset="0" style="stop-color:#BCA061"/>
				<stop offset="0.1845" style="stop-color:#AA925A"/>
				<stop offset="0.4536" style="stop-color:#968253"/>
				<stop offset="0.7249" style="stop-color:#8A784F"/>
				<stop offset="1" style="stop-color:#86754D"/>
			</linearGradient>
			<path class="st6" d="M454.6,185.2v16.3c0,2.5,0.2,4.3,0.5,5.6c0.3,1.2,1,2.3,1.9,3.2c1.7,1.6,4.1,2.6,7.3,3.1v1.4h-29.3v-1.4     c3.6-0.5,6.1-1.7,7.7-3.5c0.7-0.8,1.2-1.8,1.5-3c0.3-1.2,0.4-3,0.4-5.3v-14.5L431.3,168l-0.5-0.6c-2.5-3.8-4.6-6.3-6.3-7.8     c-1.7-1.4-3.5-2.3-5.5-2.5v-1.3h27.4v1.3l-0.9,0c-2.2,0.1-3.8,0.4-4.6,1c-0.8,0.6-1.2,1.5-1.2,2.8c0,1.3,0.6,2.8,1.8,4.6     l12.4,17.8l10-12.3c2.2-2.7,3.3-5.2,3.3-7.4c0-2-0.7-3.6-2.2-4.7c-1.5-1.1-3.6-1.7-6.4-1.8v-1.3h23.2v1.3     c-1.5,0.4-2.9,0.9-4.1,1.7c-1.3,0.8-2.5,1.7-3.8,2.9c-1.2,1.2-2.6,2.7-4.1,4.5l-2.7,3.4l-0.7,0.8L454.6,185.2z"/>
			<linearGradient id="SVGID_7_" gradientUnits="userSpaceOnUse" x1="349.6738" y1="129.3406" x2="425.8407" y2="257.1488">
				<stop offset="0" style="stop-color:#BCA061"/>
				<stop offset="0.1845" style="stop-color:#AA925A"/>
				<stop offset="0.4536" style="stop-color:#968253"/>
				<stop offset="0.7249" style="stop-color:#8A784F"/>
				<stop offset="1" style="stop-color:#86754D"/>
			</linearGradient>
			<path class="st7" d="M399.2,157.1l2.5,14.4h-1.5c-0.8-2.6-1.5-4.6-2.3-6.1c-0.8-1.5-1.6-2.8-2.5-3.8c-1.5-1.6-3.3-2.9-5.3-3.8     c-2.1-0.9-4.2-1.4-6.5-1.4c-3.2,0-5.8,0.8-7.8,2.6c-2,1.7-3,3.9-3,6.7c0,3,1.3,5.4,3.9,7.4c1.4,1,2.8,1.9,4.3,2.6     c1.5,0.8,3.9,1.8,7.2,3.2c2.3,0.9,4.1,1.7,5.7,2.4c1.6,0.7,2.8,1.4,3.8,1.9c1,0.6,1.9,1.2,2.9,2c4,3.2,6,7.4,6,12.7     c0,3.4-0.9,6.5-2.8,9.3c-1.9,2.8-4.5,4.9-7.8,6.5c-3.3,1.6-7,2.4-11,2.4c-2.8,0-6-0.4-9.7-1.2c-2.2-0.5-5-1.4-8.5-2.8l-1.2-0.4     l-1.3-16.4h1.3c1.3,4.4,3.3,8.3,6.1,11.8c3.7,4.5,8.1,6.8,13.3,6.8c2.6,0,5-0.5,7-1.5c2-1,3.6-2.4,4.8-4.1c1.1-1.7,1.7-3.7,1.7-6     c0-2-0.4-3.8-1.3-5.4c-0.9-1.6-2.3-3.1-4.4-4.5c-2-1.4-4.8-2.9-8.3-4.4c-5.1-2.2-8.2-3.6-9.3-4.2c-2.1-1.2-3.8-2.5-5.2-3.8     c-1.4-1.4-2.4-2.9-3.1-4.5c-0.7-1.6-1-3.3-1-5.2c0-2.8,0.7-5.5,2.3-7.8c1.5-2.4,3.6-4.2,6.2-5.6c2.6-1.4,5.6-2,8.8-2     c2,0,4.3,0.3,6.7,1l2.6,0.7c1.9,0.5,4,0.8,6.2,0.8H399.2z"/>
		</g>
		<g>
			<linearGradient id="SVGID_8_" gradientUnits="userSpaceOnUse" x1="164.48" y1="52.6529" x2="326.2738" y2="52.6529">
				<stop offset="0" style="stop-color:#BCA061"/>
				<stop offset="0.1196" style="stop-color:#B1975D"/>
				<stop offset="0.4434" style="stop-color:#9A8554"/>
				<stop offset="0.7449" style="stop-color:#8B794F"/>
				<stop offset="1" style="stop-color:#86754D"/>
			</linearGradient>
			<path class="st8" d="M246.5,48.8c-0.1,0-0.1,0.1-0.2,0.1l-0.2,0.1c-0.1,0-0.2,0.1-0.2,0.1c-1.1,0.6-1.9,1.7-2.3,3.2     c-0.4,1.4-0.3,2.8,0.2,4.1c0.2-0.1,0.3-0.3,0.5-0.5c0.3-0.4,0.6-0.8,0.9-1.2c0.5-0.9,0.9-1.8,1.2-2.9     C246.6,50.8,246.7,49.8,246.5,48.8C246.5,48.8,246.5,48.8,246.5,48.8z"/>
			<linearGradient id="SVGID_9_" gradientUnits="userSpaceOnUse" x1="164.48" y1="69.3406" x2="326.2738" y2="69.3406">
				<stop offset="0" style="stop-color:#BCA061"/>
				<stop offset="0.1196" style="stop-color:#B1975D"/>
				<stop offset="0.4434" style="stop-color:#9A8554"/>
				<stop offset="0.7449" style="stop-color:#8B794F"/>
				<stop offset="1" style="stop-color:#86754D"/>
			</linearGradient>
			<path class="st9" d="M240.9,22.2c-26,0-47.2,21.2-47.2,47.2c0,26,21.2,47.2,47.2,47.2c26,0,47.2-21.2,47.2-47.2     C288.1,43.3,266.9,22.2,240.9,22.2z M205.5,48c0.5-1.1,1.2-2.1,2.1-3c0.9-0.9,1.9-1.6,3.1-2.1c2.3-1,4.9-1,7.2,0.1     c1.1,0.6,2,1.3,2.7,2.2c0.7,0.9,1,2,1,3c0,1-0.3,1.9-1,2.6c-0.7,0.7-1.5,1.1-2.5,1.1c-0.7,0-1.3-0.2-1.8-0.6     c-0.5-0.4-0.8-1-0.8-1.6c0-0.4,0.1-0.8,0.3-1c0.5-0.5,1.3-0.5,1.8,0c0.2,0.2,0.3,0.5,0.3,0.9c0,0.3-0.1,0.6-0.4,0.9     c0,0-0.1,0-0.1,0.1c0.2,0.1,0.5,0.1,0.7,0.1c0.5,0,0.9-0.1,1.3-0.4c0.3-0.3,0.5-0.6,0.5-1c0-0.5-0.3-0.9-1-1.3     c-0.8-0.5-1.4-0.9-1.6-1.2c-0.3-0.4-0.4-0.8-0.4-1.4c0-0.4,0.1-0.7,0.2-1.1c-1.6-0.9-3.9-0.9-5.6,0c-0.9,0.4-1.6,1.1-2.1,1.8     c-0.5,0.8-0.8,1.6-0.8,2.5c0,1,0.4,2,1.4,2.8l1.4,1.4c1.2,1.1,1.8,2.5,1.8,4c0.2-0.3,0.4-0.6,0.6-0.9c0.6-0.8,1.4-1.2,2.4-1.2     c1.1,0,1.9,0.5,2.5,1.5c0.1,0.2,0,0.4-0.1,0.5c-0.1,0.1-0.3,0.1-0.5,0c-0.8-0.7-1.7-0.7-2.1-0.3c-0.2,0.2-0.3,0.5-0.3,0.9     c0,0.2,0.1,0.6,0.4,1.4c0.3,0.7,0.4,1.2,0.4,1.6c0,0.8-0.3,1.4-0.8,1.9c-0.3,0.2-0.6,0.4-1,0.5c0.4,0.2,0.9,0.4,1.3,0.6     c0.7,0.3,1.5,0.4,2.2,0.4c1,0,1.8-0.3,2.2-0.9c0.1-0.1,0.2-0.1,0.3-0.1c0.1,0,0.2,0,0.3,0.1c0.4,0.4,0.7,0.8,0.8,1.2     c0,0.2,0,0.4-0.2,0.4c-0.8,0.4-1.8,0.7-3,0.7c-1.8,0-3.6-0.5-5.2-1.6c-0.1,0.4-0.3,0.7-0.6,1c-0.4,0.4-0.9,0.6-1.6,0.6     c-0.7,0-1.3-0.2-1.7-0.5c-0.4-0.3-0.8-0.9-1.2-1.8c-0.5-1-0.9-1-1.1-1c-0.2,0-0.3,0.1-0.5,0.2c-0.1,0.1-0.2,0.2-0.2,0.4     c0,0.1,0,0.2,0.2,0.5c0.1,0.2,0,0.3-0.1,0.5c-0.1,0.1-0.3,0.1-0.5,0c-0.7-0.4-1-1-1-1.7c0-0.6,0.2-1.2,0.7-1.6     c0.7-0.6,1.7-0.8,2.7-0.5c-0.4-0.5-0.8-1-1.2-1.5c-0.8-1-1.4-2.1-1.8-3.3c-0.4-1.1-0.6-2.2-0.6-3.3C204.8,50.3,205,49.1,205.5,48     z M207.2,95.5c-1.5-0.6-2.9-1.6-4-2.7c-1.1-1.1-2.1-2.5-2.7-4c-0.6-1.5-1-3.1-1-4.7c0-1.4,0.3-2.8,0.8-4.3     c0.5-1.5,1.3-2.9,2.4-4.3c0.6-0.8,1.2-1.6,2-2.3c-1.5,0.5-2.9,0.4-3.9-0.5c-0.6-0.5-0.9-1.2-0.9-2.1c0-0.9,0.4-1.7,1.3-2.2     c0.1-0.1,0.3-0.1,0.5,0c0.1,0.1,0.2,0.3,0.1,0.4c-0.2,0.5-0.2,0.7-0.2,0.8c0,0.2,0.1,0.4,0.3,0.6c0.2,0.2,0.4,0.2,0.7,0.2     c0.6,0,1.1-0.4,1.6-1.4c0.5-1.1,1-1.9,1.6-2.3c0.6-0.4,1.3-0.7,2.2-0.7c0.8,0,1.5,0.3,2,0.8c0.4,0.4,0.6,0.8,0.8,1.4     c2.2-1.4,4.5-2.2,7-2.2c1.5,0,2.9,0.3,3.9,0.8c0.2,0.1,0.2,0.3,0.2,0.4c-0.2,0.6-0.5,1.1-1,1.6c-0.1,0.1-0.2,0.1-0.3,0.1     c-0.1,0-0.2-0.1-0.3-0.2c-0.6-0.8-1.6-1.2-3.1-1.2c-1,0-2,0.2-3,0.5c-0.7,0.3-1.4,0.6-2.1,1c0.6,0.1,1.2,0.4,1.6,0.7     c0.7,0.6,1,1.4,1,2.4c0,0.5-0.2,1.1-0.6,2.1c-0.4,1.1-0.5,1.7-0.5,1.9c0,0.6,0.1,1,0.4,1.3c0.6,0.6,1.9,0.6,3-0.4     c0.1-0.1,0.4-0.1,0.5,0c0.1,0.1,0.2,0.3,0.1,0.5c-0.7,1.3-1.7,2-3.2,2c-1.2,0-2.3-0.5-3.1-1.5c-0.4-0.5-0.7-1-1-1.7     c0,0.2,0,0.3,0,0.5c0,2.1-0.8,3.9-2.3,5.4l-1.9,1.8c-1.2,1.1-1.9,2.4-1.9,3.9c0,1.2,0.3,2.3,1,3.3c0.7,1.1,1.7,1.9,2.8,2.5     c1.2,0.6,2.5,0.9,3.9,0.9c1.4,0,2.7-0.3,3.7-1c-0.2-0.5-0.3-1-0.3-1.4c0-0.7,0.2-1.3,0.5-1.8c0.3-0.4,1-0.9,2.1-1.6     c1-0.6,1.4-1.2,1.4-1.9c0-0.5-0.2-1-0.7-1.4c-0.5-0.4-1.1-0.6-1.8-0.6c-0.5,0-0.9,0.1-1.3,0.3c0.1,0.1,0.2,0.1,0.3,0.2     c0.3,0.3,0.5,0.6,0.5,1.1c0,0.4-0.1,0.8-0.4,1.1c-0.6,0.6-1.7,0.6-2.2,0c-0.3-0.3-0.4-0.7-0.4-1.2c0-0.8,0.3-1.5,1-2     c0.6-0.5,1.5-0.8,2.4-0.8c1.2,0,2.3,0.5,3.2,1.4c0.9,0.9,1.3,2,1.3,3.3c0,1.4-0.4,2.8-1.3,4c-0.9,1.2-2,2.2-3.5,2.9     c-1.4,0.7-3,1.1-4.7,1.1C210.3,96.4,208.7,96.1,207.2,95.5z M277.8,82.2h1.7l-5.8,20H214v-1.5c3.5-0.6,6.1-2,7.7-4.1     c1.2-1.6,1.9-4.7,1.9-9.4V50.2c0-3-0.2-5.1-0.5-6.5c-0.3-1.3-0.9-2.5-1.8-3.4c-1.6-1.8-4-3-7.3-3.5v-1.5h13.7h2.5h41.5l1.9,18.3     h-1.6c-1.7-5.6-4.2-9.8-7.6-12.4c-2.6-2.1-5.8-3.3-9.6-3.8c0.2,0.4,0.4,0.8,0.5,1.1c0.1,0.4,0.2,0.8,0.2,1.3c0,0.1,0,0.3,0,0.5     c0,0.2,0,0.3-0.1,0.5c-0.1,0.7-0.3,1.2-0.7,1.6c-0.3,0.3-0.7,0.7-1.1,0.9c-0.1,0.1-0.3,0.2-0.5,0.3c-0.1,0.1-0.3,0.2-0.5,0.4     c-0.2,0.2-0.3,0.4-0.4,0.7c-0.1,0.4-0.1,0.7,0,1l0,0.2c0,0,0,0,0.1,0.1c0,0,0,0,0,0c0,0,0,0,0,0.1c0.1,0.1,0.2,0.3,0.4,0.4     c0.1,0.1,0.3,0.1,0.4,0c0.2-0.1,0.2-0.2,0.3-0.3c0.1-0.2,0.1-0.4,0.2-0.6c0,0,0-0.2,0-0.2l0.1-0.3c0-0.1,0.1-0.3,0.1-0.4     c0.1-0.3,0.3-0.7,0.6-1c0.3-0.3,0.6-0.6,1.1-0.8c1.5-0.7,3-0.7,4.5,0c1.5,0.7,2.6,1.8,3.5,3.1c0.1,0.1,0.1,0.2,0.2,0.3     c0.1,0.1,0.2,0.3,0.2,0.4c0,0.1,0.1,0.2,0.1,0.3c0,0.1,0.1,0.2,0.1,0.3c0.2,0.6,0.3,1.2,0.2,1.9c-0.1,0.6-0.2,1.2-0.3,1.7     c-0.1,0.3-0.2,0.6-0.4,0.8c-0.2,0.3-0.4,0.4-0.6,0.6c-0.2,0.1-0.2,0-0.3,0.1c-0.2,0-0.3,0-0.5,0c-0.2,0-0.3-0.1-0.5-0.2     c0,0-0.1-0.1-0.1-0.1c0,0-0.1-0.1-0.1-0.1c-0.1-0.1-0.1-0.3-0.1-0.4c0-0.1,0-0.3,0-0.4l0.1-0.3c0-0.1,0-0.2,0.1-0.3     c0-0.1,0.1-0.2,0.1-0.2c0.1-0.1,0.2-0.2,0.3-0.4l0.5-0.6c0.2-0.3,0.4-0.6,0.5-0.9c0.1-0.2,0-0.4-0.1-0.8     c-0.3-0.5-0.7-0.9-1.2-1.1c-0.5-0.2-1-0.2-1.5,0c-0.3,0.2-0.6,0.4-0.8,0.7c-0.2,0.3-0.4,0.7-0.6,1.1c-0.1,0.2-0.2,0.4-0.3,0.7     c-0.1,0.2-0.2,0.4-0.4,0.7c-0.1,0.1-0.2,0.3-0.3,0.4c-0.1,0.1-0.3,0.2-0.4,0.3c-0.6,0.3-1.1,0.2-1.7-0.2     c-0.4-0.4-0.8-0.8-1.1-1.4l0-0.1c0-0.1,0-0.1-0.1-0.1c-0.2-0.3-0.4-0.5-0.6-0.6c-0.2-0.1-0.4-0.1-0.6,0c-0.2,0.1-0.3,0.3-0.4,0.5     c-0.1,0.2-0.1,0.4,0,0.6c0.1,0.1,0.1,0.2,0.2,0.3c0.1,0.1,0.2,0.2,0.3,0.3l0.5,0.4c0.3,0.2,0.5,0.4,0.8,0.7     c0.3,0.3,0.6,0.7,0.8,1.2c0.1,0.2,0.2,0.5,0.2,0.8c0,0.3,0.1,0.6,0,0.9c0,0.7-0.2,1.4-0.6,2.2c-0.4,0.8-1,1.4-1.8,1.8l-0.1,0.1     c-0.1,0-0.2,0.1-0.3,0.1c-0.2,0.1-0.4,0.1-0.6,0.1l0,0c-0.3,0-0.6-0.1-0.7-0.4c-0.1-0.3-0.1-0.6,0.1-0.8c0.1-0.1,0.3-0.3,0.5-0.4     c0.1,0,0.1,0,0.2-0.1c0,0,0.1-0.1,0.2-0.1c0,0,0.1,0,0.1,0l0,0c0.4-0.2,0.7-0.5,0.9-0.9c0.2-0.4,0.2-0.8-0.1-1.2     c-0.1-0.2-0.2-0.3-0.3-0.3c-0.2-0.1-0.3-0.2-0.5-0.2c0,0-0.2,0-0.2,0c0,0-0.1,0-0.1,0c-0.1,0-0.2,0-0.3,0c-0.2,0-0.3,0.1-0.6,0.2     c-0.5,0.2-1,0.3-1.5,0.1c-0.5-0.2-0.9-0.5-1.2-1.1c-0.4-0.8-0.4-1.6-0.1-2.2c0.3-0.6,0.8-1.1,1.3-1.5c0.1-0.1,0.2-0.1,0.3-0.2     c0,0,0.1-0.1,0.2-0.1l0.3-0.2c0.1,0,0.2-0.1,0.2-0.1c0.2-0.1,0.4-0.3,0.6-0.5c0,0,0.1-0.1,0.1-0.1c0,0-0.2-0.1-0.2-0.1     c-0.1,0-0.2,0-0.3,0c-0.4,0-0.9,0-1.5,0.1c-0.7,0.1-1.3,0.3-1.8,0.5c0.1,0.2,0.1,0.5,0.1,0.8c0,0.4,0,0.8,0,1.3     c-0.1,1.3-0.4,2.6-1,3.9c-0.6,1.4-1.3,2.5-2.3,3.4c0,0-0.1,0.1-0.1,0.1c0.2,0.3,0.3,0.5,0.4,0.6c0.1,0.2,0.3,0.3,0.5,0.4     c0.1,0,0.2,0.1,0.3,0.1c0.1,0.1,0.2,0.1,0.3,0.2c0,0,0.2,0,0.2,0c0,0,0.1,0,0.1,0c0.1,0,0.1,0,0.2,0c0.1,0,0.2,0,0.3,0     c0.2,0,0.4,0.1,0.5,0.2c0,0,0.1,0.1,0.1,0.1c0.3,0.5,0.3,1.1,0.1,1.6c-0.2,0.5-0.6,0.9-1,1.2c-0.1,0-0.1,0.1-0.1,0.1     c-0.1,0-0.1,0.1-0.2,0.1c-0.1,0.1-0.3,0.1-0.4,0.1c0,0-0.1,0-0.1,0c0,0-0.1,0-0.2,0h-0.1c-0.1,0-0.2,0-0.2-0.1     c-0.1-0.1-0.2-0.2-0.4-0.3c-0.1-0.1-0.2-0.2-0.3-0.2c-0.3-0.3-0.5-0.5-0.7-0.8c-0.2-0.3-0.4-0.6-0.6-0.9c0,0,0-0.1-0.1-0.1     c-0.1-0.1-0.1-0.1-0.1-0.2l-0.2-0.4c-1-2.1-1.3-4.3-0.9-6.6c0.1-0.7,0.3-1.4,0.5-2c-0.2,0.2-0.4,0.4-0.6,0.5c0,0-0.1,0.1-0.2,0.1     l-0.2,0.1c-0.6,0.3-1.2,0.3-1.8,0c-0.6-0.3-1-0.7-1.3-1.2c-0.7-1.3-0.8-2.5-0.3-3.6c0.4-1.1,1.2-2,2.3-2.6c0,0,0,0,0.1,0     c0,0,0,0,0.1-0.1c1.3-0.7,2.6-0.7,3.9,0c1.1,0.6,2.1,1.6,2.9,3c0,0,0.1,0,0.1,0c0.4-0.1,0.9-0.2,1.3-0.3c0.4-0.1,0.9-0.1,1.3-0.1     c0.3,0,0.5,0,0.7-0.1c0.2,0,0.4,0,0.5,0c-0.1-0.1-0.2-0.2-0.4-0.3c-0.3-0.1-0.6-0.3-0.9-0.5c-0.4-0.2-0.7-0.4-1-0.6     c-0.4-0.3-0.7-0.6-0.9-1.1c-0.4-0.7-0.5-1.4-0.3-2.1c0.1-0.7,0.4-1.2,0.8-1.6l0.2-0.2c0.1,0,0.1-0.1,0.2-0.1     c0.5-0.3,0.9-0.3,1.3-0.3c0.3,0,0.6,0.1,1,0.3c0,0,0.1,0,0.1,0c0.4,0.1,0.7,0.2,1.1,0.3c0.3,0,0.6,0,1-0.2     c0.3-0.1,0.5-0.4,0.6-0.7c0.1-0.3,0.1-0.6,0-0.9c0-0.1-0.1-0.1-0.1-0.2c-0.1-0.1-0.1-0.2-0.2-0.3c0,0-0.1-0.1-0.1-0.1     c-0.2-0.2-0.2-0.3-0.3-0.4l-0.1-0.1c-0.1-0.1-0.2-0.2-0.3-0.4c-0.5,0-0.9-0.1-1.4-0.1h-2.7c-4.3,0-7.3,0.8-9.1,2.5     c-1.8,1.6-2.7,4.4-2.7,8.3v16.7h6.5c4.9,0,8.5-0.8,10.8-2.3c2.3-1.5,3.8-4.3,4.7-8.4h1.5v24.8h-1.5c-0.6-3.3-1.5-5.8-2.6-7.5     c-1.1-1.7-2.6-2.9-4.6-3.6c-2-0.7-4.7-1-8.1-1h-6.7v21.3c0,3.2,0.3,5.7,0.9,7.4c0.6,1.7,1.7,2.9,3.2,3.6c1.5,0.7,3.7,1,6.4,1h4.5     c4.4,0,8.7-1.4,12.7-4.1c4.4-3.1,8.8-7.4,13-12.9L277.8,82.2z M249.2,75.6c0.2,0.1,0.5,0.1,0.7,0c0.2-0.1,0.4-0.2,0.4-0.4     c0-0.1,0.2-0.3-0.2-0.9c-0.2-0.3-0.4-0.6-0.5-0.8c-0.1-0.2-0.2-0.5-0.2-0.7c0-0.2,0-0.4,0.1-0.7c0.1-0.2,0.2-0.4,0.4-0.5     c-0.3-0.4-0.8-0.7-1.3-0.9c-0.5-0.2-1.1-0.3-1.6-0.3l-0.2,0c-0.6,0-1.2,0.2-1.7,0.5c-0.5,0.3-0.8,0.7-1,1.2     c-0.2,0.6-0.2,1.2,0.1,1.9l0.5,1.2c0.2,0.5,0.3,1,0.3,1.5c0,0.4-0.1,0.7-0.1,1c0.1-0.1,0.2-0.1,0.2-0.1c0.6-0.3,1.2-0.3,1.8-0.1     c0.7,0.3,1.1,0.9,1.2,1.7c0,0.2-0.1,0.4-0.3,0.4c-0.2,0-0.4,0-0.5-0.2c-0.2-0.3-0.3-0.5-0.6-0.6c-0.2-0.1-0.3-0.1-0.4,0     c-0.1,0-0.2,0.1-0.3,0.4c0,0.1-0.1,0.3-0.1,0.9c0,0.5-0.1,0.8-0.2,1.1c-0.2,0.5-0.6,0.8-1.1,1c-0.1,0-0.3,0.1-0.4,0.1     c0.1,0.2,0.3,0.3,0.4,0.5c0.4,0.4,0.8,0.6,1.2,0.8c0.6,0.2,1,0.3,1.4,0c0.1,0,0.2,0,0.3,0c0.1,0,0.2,0.1,0.2,0.2     c0.1,0.3,0.2,0.6,0.2,1c0,0.2-0.2,0.3-0.4,0.4c-0.1,0-0.1,0-0.2,0c-0.6,0-1.2-0.1-1.8-0.4c-1-0.5-1.9-1.2-2.6-2.2     c-0.1,0.1-0.3,0.2-0.5,0.3c-0.4,0.1-0.8,0.1-1.2,0c-0.5-0.2-0.8-0.5-1-0.8c-0.2-0.3-0.3-0.8-0.3-1.4c0-0.6-0.2-0.7-0.3-0.7     c-0.1,0-0.1,0-0.1,0c-0.1,0-0.2,0.1-0.2,0.1c0,0,0,0.1,0,0.3c0,0.2-0.1,0.3-0.3,0.4c-0.2,0-0.3,0-0.4-0.2     c-0.4-0.6-0.3-1.1-0.2-1.4c0.2-0.4,0.5-0.7,0.9-0.8c0.4-0.1,0.8-0.1,1.3,0.1c0.1,0,0.1,0.1,0.2,0.1c-0.1-0.3-0.2-0.5-0.2-0.8     c-0.2-0.8-0.2-1.6-0.2-2.4c0-0.8,0.2-1.5,0.5-2.2c0.3-0.7,0.8-1.4,1.5-2c0.6-0.5,1.3-1,2-1.3c0.7-0.3,1.5-0.4,2.3-0.4     c0.9,0,1.7,0.2,2.4,0.5c0.8,0.3,1.4,0.8,1.9,1.5c0.5,0.6,0.9,1.3,1,2.1c0.2,0.7,0.1,1.5-0.2,2.2c-0.2,0.4-0.4,0.7-0.8,1     c-0.4,0.3-0.7,0.4-1.2,0.5c-0.4,0-0.8,0-1.2-0.2c-0.4-0.2-0.8-0.5-1-0.9c-0.2-0.4-0.2-0.9-0.1-1.3c0.1-0.2,0.3-0.4,0.5-0.5     c0.3-0.1,0.5-0.1,0.8,0c0.2,0.1,0.4,0.3,0.5,0.5c0.1,0.1,0.1,0.4,0,0.7c-0.1,0.2-0.2,0.3-0.4,0.4     C249.1,75.5,249.1,75.6,249.2,75.6z M274.6,83.9c0,0.2-0.1,0.3-0.2,0.5c0,0.1-0.1,0.1-0.2,0.1c0,0.1-0.1,0.1-0.2,0.2     c0,0-0.1,0.1-0.2,0.1c-0.1,0-0.2,0-0.2,0.1c-0.1,0-0.2,0-0.2,0l0,0c-0.1,0-0.1,0-0.2,0c-0.2-0.1-0.4-0.2-0.5-0.2     c-0.1-0.1-0.2-0.2-0.4-0.3c0,0-0.1-0.1-0.1-0.2c0,0-0.1-0.1-0.2-0.2c-0.1-0.1-0.2-0.2-0.2-0.3c0,0-0.1-0.1-0.1-0.1     c-0.3-0.4-0.6-0.7-0.9-1c-0.3-0.3-0.6-0.6-1-0.8c-0.2-0.1-0.4-0.3-0.6-0.4l0,0c0.1,0.1,0.2,0.2,0.3,0.4c0.2,0.3,0.4,0.7,0.4,1     c0.1,0.3,0.1,0.6,0.1,1c0,0.1,0,0.2,0,0.3c0,0.1-0.1,0.2-0.1,0.3c-0.1,0.2-0.2,0.5-0.4,0.7c-0.2,0.2-0.5,0.4-0.7,0.4l-0.1,0     c0,0-0.1,0-0.2,0c-0.3,0-0.4,0-0.6-0.1c-0.4-0.2-0.5-0.5-0.5-0.6c0-0.2,0-0.3,0-0.5c0-0.1,0.1-0.2,0.1-0.3c0-0.1,0.1-0.1,0.1-0.2     c0-0.1,0.1-0.2,0.2-0.3c0-0.1,0.1-0.3,0.2-0.4c0-0.1,0.1-0.2,0.1-0.3c0,0,0,0,0,0c-0.1,0.1-0.2,0.1-0.4,0.1c0,0-0.1,0-0.1,0     c0,0-0.1,0-0.1,0l0,0c0,0-0.1,0-0.1,0c-0.1,0-0.3,0-0.5,0c-0.1,0-0.3-0.1-0.4-0.1c-0.1,0-0.1-0.1-0.2-0.1c0,0-0.1,0-0.1,0     c-0.2-0.1-0.4-0.3-0.5-0.4c-0.2-0.2-0.3-0.4-0.4-0.8c0-0.1,0-0.1,0-0.2c-0.2,0.3-0.6,0.5-1,0.5c-0.4,0-0.9-0.1-1.3-0.4     c-0.1-0.1-0.2-0.1-0.2-0.2c0,0,0,0,0,0.1c-0.1,0.2-0.3,0.4-0.5,0.5l-0.2,0.1c-0.1,0.1-0.2,0.2-0.4,0.3l-0.1,0.1     c-0.1,0.1-0.3,0.2-0.4,0.3c-0.2,0.2-0.4,0.3-0.7,0.5c-0.2,0.2-0.4,0.4-0.5,0.5l-0.8,1.2c-0.1,0.1-0.2,0.3-0.2,0.4     c0,0,0.1-0.1,0.1-0.1c0.4-0.3,0.9-0.6,1.4-0.8c0.5-0.2,1.1-0.4,1.7-0.4c0,0,0.2,0,0.2,0c0,0,0.2,0,0.2,0l0,0c0.1,0,0.3,0,0.4,0     l0.4,0c0.7,0.1,1.4,0.2,2,0.4c0.3,0.1,1.1,0.4,1.1,1.1c0,0.2,0,0.4-0.2,0.7c-0.1,0.1-0.2,0.2-0.4,0.4c-0.1,0-0.1,0.1-0.2,0.1     c-0.1,0-0.2,0-0.3,0c-0.2,0-0.4-0.1-0.7-0.2c-0.2-0.1-0.5-0.3-0.7-0.4c-0.3-0.1-0.5-0.2-0.9-0.4c-0.3-0.1-0.5-0.1-0.8-0.1     c-0.1,0-0.3,0-0.4,0.1c-0.1,0.1-0.3,0.1-0.4,0.1c-0.4,0.1-0.7,0.3-1,0.5c-0.3,0.2-0.7,0.4-1,0.6c-0.3,0.2-0.6,0.5-0.8,0.7     c-0.2,0.2-0.3,0.3-0.4,0.4c-0.5,1.6-1.2,3-1.9,4c-0.6,0.8-1.3,1.6-2.2,2.4c-0.5,0.5-1.2,0.9-1.9,1.3c0.4-0.1,0.8-0.2,1.3-0.5     c0.5-0.3,1.1-0.8,1.6-1.2c0.3-0.2,0.5-0.5,0.8-0.8l0.1-0.1c0.2-0.2,0.4-0.5,0.6-0.7c0.5-0.5,0.9-1,1.3-1.5     c0.4-0.5,0.8-0.9,1.1-1.2c0.3-0.3,0.6-0.5,0.9-0.8c0.4-0.3,0.7-0.5,1-0.6c0.4-0.2,0.9-0.4,1.3-0.5c0.4-0.1,0.8-0.2,1.1-0.3     c0.1,0,0.2,0,0.3,0l0.1,0c0.2,0.1,0.2,0.1,0.3,0.2c0.2,0.2,0.3,0.3,0.3,0.5c0,0.2-0.1,0.4-0.3,0.6c-0.1,0.1-0.3,0.2-0.5,0.3     l-0.2,0.1c0,0-0.1,0-0.1,0c-0.1,0-0.2,0-0.3,0c-0.1,0-0.3,0-0.4,0.1c-0.1,0-0.2,0-0.3,0.1c0,0,0,0,0,0c0,0.1,0,0.2,0,0.3     c0,0.1,0,0.1,0,0.2c0,0,0,0.1,0,0.3c-0.1,0.3-0.3,0.6-0.6,0.8c-0.3,0.2-0.5,0.4-0.8,0.5c-0.1,0-0.2,0.1-0.2,0.1     c-0.1,0-0.2,0.1-0.3,0.1c-0.2,0.1-0.4,0.3-0.6,0.4c-0.1,0.1-0.1,0.1-0.1,0.2c0,0,0.1,0.1,0.1,0.1c0,0,0,0.1,0.1,0.1     c0,0,0.1,0,0.1,0c0.1-0.1,0.2-0.2,0.4-0.3c0.2-0.1,0.3-0.2,0.5-0.3c0.2-0.1,0.4-0.2,0.6-0.2c0,0,0.1,0,0.1,0c0,0,0.1,0,0.1,0     c0,0,0.1,0,0.1,0c0.2,0,0.4,0,0.6,0.1c0.3,0.1,0.5,0.3,0.5,0.6c0,0.2,0,0.3-0.1,0.5c0,0.2-0.1,0.3-0.2,0.5     c-0.1,0.2-0.2,0.4-0.4,0.6c-0.1,0.2-0.3,0.3-0.4,0.5c0,0-0.1,0.1-0.1,0.1c-0.1,0-0.1,0.1-0.2,0.1l-0.3,0.2     c-0.4,0.2-0.8,0.4-1.1,0.4c-0.3,0.1-0.7,0.1-1.2,0.2l-0.2,0c0,0-0.1,0-0.1,0c-0.1,0-0.1,0.1-0.2,0.1c-0.1,0-0.1,0-0.2,0l-0.1,0     c-0.3,0-0.5,0-0.7,0c-0.2,0-0.5-0.2-0.7-0.5c0,0,0-0.1,0-0.1l0-0.1c0,0,0-0.1,0-0.1c-0.1,0-0.2,0.1-0.3,0.2     c-0.3,0.2-0.7,0.5-1.1,0.7c-0.4,0.3-0.8,0.5-1.3,0.8c-0.5,0.3-1,0.4-1.6,0.5c-0.1,0-0.2,0-0.4,0l-0.3,0c-0.1,0-0.2,0-0.3,0     c-0.1,0-0.2,0-0.4,0.1c-0.1,0-0.3,0-0.4,0c0,0,0,0,0,0c-0.2,0-0.4,0-0.6-0.1c-0.1,0-0.2-0.1-0.3-0.1c-0.1-0.1-0.2-0.2-0.3-0.2     c0,0,0,0-0.1,0l-0.5-0.1c-0.1,0-0.2,0-0.4,0l-0.3,0c-0.2,0-0.3,0-0.4,0h-0.2c-1.6,0-3.2-0.5-4.6-1.4c-1.6-1-2.5-2.3-2.7-3.9     l-0.1-0.5c0-0.3,0-0.6,0.1-0.8c0-0.4,0.3-0.6,0.6-0.6c0,0,0.1,0,0.1,0c0.2,0,0.3,0,0.5,0.1c0.1,0.1,0.2,0.2,0.3,0.3     c0,0,0,0,0.1,0.1c0.1,0.1,0.2,0.2,0.4,0.3c0.1,0,0.3,0.1,0.6,0c0.1,0,0.3-0.1,0.4-0.2c0.2-0.1,0.3-0.3,0.4-0.4l0.3-0.4     c0.2-0.2,0.4-0.3,0.6-0.4c0,0,0,0,0,0c0.3,0,0.5,0.1,0.5,0.3c0,0.1,0.1,0.2,0.1,0.3l0,0.1c0,0.1,0,0.3-0.1,0.5     c0,0.2-0.1,0.4-0.2,0.6c-0.1,0.3-0.3,0.6-0.5,0.9c-0.3,0.3-0.6,0.5-1,0.6c-0.2,0-0.4,0-0.5,0.1c-0.1,0-0.2,0-0.3,0     c0.1,0.2,0.2,0.3,0.3,0.5c0.3,0.3,0.6,0.5,0.9,0.7c0.1,0,0.3,0.1,0.4,0.2c0.1,0,0.2,0.1,0.2,0.1l0,0c0,0,0.1,0,0.1,0     c0.1,0,0.1,0,0.1,0c0,0,0.1,0,0.1,0c0,0,0.1-0.1,0.2-0.1c0.1,0,0.1-0.1,0.2-0.1c0.2-0.1,0.3-0.1,0.5-0.1c0.2,0,0.4,0,0.6,0     c0.1,0,0.3,0,0.4,0.1c0.1,0,0.3,0,0.4,0.1c0.1,0,0.2,0,0.4,0c0.7-0.1,1.3-0.3,1.8-0.7c0.5-0.3,0.8-0.8,1-1.3     c0-0.2-0.1-0.3-0.1-0.5l-0.3-0.7c0-0.1-0.1-0.2-0.1-0.2c-0.1-0.2-0.2-0.5-0.3-0.7c-0.1-0.3-0.1-0.6-0.2-0.9l0-0.2     c0-0.2,0-0.4,0-0.5c0-0.2,0-0.5,0-0.8c0.1-0.5,0.4-0.7,0.6-0.7c0.2,0,0.3,0,0.4,0.1c0,0,0.1,0,0.1,0.1l0.4,0l-0.4-0.1     c0,0,0,0-0.1,0c0,0-0.1-0.1-0.2-0.2c-0.1-0.1-0.1-0.2-0.1-0.4c0-0.1,0-0.2,0-0.3l0.1-0.4l0.3-0.4l-0.3,0.2c0,0-0.1-0.1-0.1-0.1     c0,0-0.1-0.1-0.1-0.1c0-0.1-0.1-0.1-0.2-0.2c-0.1-0.1-0.2-0.3-0.2-0.4c0-0.1,0-0.1,0-0.1c0-0.2,0-0.4,0.1-0.6     c0.1-0.1,0.2-0.2,0.3-0.3c0.1-0.1,0.1-0.1,0.2-0.2c0.1,0,0.2-0.1,0.3-0.1c0,0,0.1,0,0.1,0c0.5,0,1,0.3,1.5,1     c0.4,0.6,0.7,1.3,1,2.1l0.1,0.6c0,0.2,0.1,0.4,0.1,0.6c0.1,0.9,0,1.7-0.2,2.4c-0.1,0.5-0.3,1-0.5,1.5c0.1-0.1,0.2-0.3,0.3-0.4     c0.4-0.7,0.8-1.5,1-2.3c0.1-0.3,0.1-0.6,0.1-0.9c0-0.3,0-0.6,0-0.9c-0.1-0.5-0.2-1-0.4-1.3c-0.2-0.4-0.4-0.7-0.6-1     c-0.1-0.1-0.2-0.3-0.3-0.4c-0.1-0.1-0.2-0.3-0.3-0.4c-0.1-0.2-0.2-0.3-0.3-0.5c-0.1-0.2-0.1-0.4-0.1-0.6c0-0.2,0-0.3,0-0.5     c0-0.1,0.1-0.2,0.1-0.3l0.1-0.3c0,0,0,0,0-0.1c0-0.4-0.1-0.5-0.2-0.6c-0.1-0.1-0.2-0.2-0.3-0.3c0,0-0.1,0-0.2-0.1l-0.3-0.1     c0,0-0.1,0-0.1-0.1c-0.1-0.1-0.2-0.2-0.3-0.4c0-0.1,0.1-0.3,0.1-0.4c0,0,0,0,0.1-0.1c0,0,0,0,0.1-0.1c0,0,0.1,0,0.1-0.1     c0,0,0.1,0,0.1-0.1c0.1-0.1,0.2-0.1,0.3-0.1c0.1,0,0.3,0,0.4,0c0.9,0,1.8,0.4,2.4,1.3c0.7,0.9,1.2,1.9,1.4,3     c0,0.2,0.1,0.3,0.1,0.6c0,0.2,0.1,0.4,0.1,0.6c0.1,0.9,0.1,1.7,0.1,2.4c-0.1,0.7-0.2,1.5-0.5,2.2c-0.1,0.3-0.2,0.6-0.4,0.9     c-0.1,0.3-0.3,0.6-0.5,0.9c-0.8,1.4-1.9,2.5-3.1,3.2c-1.2,0.7-2.6,1.1-4.1,1.3c-0.1,0-0.2,0-0.3,0c0.6,0.1,1.2,0.1,2,0     c1-0.1,1.9-0.4,2.6-0.8c0.7-0.4,1.4-0.9,2.1-1.6c0.1-0.1,0.1-0.1,0.2-0.2c0.1-0.1,0.2-0.2,0.3-0.3c0.6-0.7,1.1-1.5,1.5-2.2     c0.4-0.8,0.7-1.6,0.9-2.4l0.1-0.1c0-0.1,0-0.1,0-0.1c0.2-0.7,0.5-1.5,0.9-2.3c0.3-0.7,0.8-1.5,1.3-2.2l0.4-0.5     c0.2-0.2,0.3-0.4,0.5-0.6c0,0,0.1-0.1,0.1-0.1l0.1-0.1l0.1-0.1c0.3-0.4,0.6-0.7,0.9-1c0.4-0.4,0.7-0.6,1-0.6c0.2,0,0.2,0,0.3,0     c0,0,0.1,0,0.2,0.1c0-0.3,0.1-0.7,0.3-1c0.2-0.4,0.7-0.6,1.1-0.7c0.4,0,0.9,0.1,1.3,0.4c0.1,0.1,0.2,0.2,0.3,0.3     c0-0.1,0-0.1,0-0.1c0-0.3,0.2-0.6,0.4-0.8c0.2-0.2,0.5-0.3,0.7-0.4c0.1,0,0.2-0.1,0.2-0.1c0,0,0.1,0,0.1-0.1c0,0,0.1,0,0.2,0     c0,0,0,0,0.1,0l0,0c0,0,0.1,0,0.1,0c0.4,0,0.5,0,0.7,0c0.1,0,0.3,0.1,0.4,0.1c0.2,0.1,0.3,0.1,0.5,0.3c0.2,0.2,0.3,0.4,0.3,0.7     c0,0.1,0,0.2,0,0.2c0,0,0,0.1,0,0.1c0,0.1,0,0.2,0,0.3c0.1,0,0.1-0.1,0.2-0.1c0.2-0.1,0.4-0.2,0.5-0.4c0,0,0-0.1,0.1-0.2     c0-0.1,0.1-0.1,0.1-0.2c0,0,0,0,0-0.1c0,0,0-0.1,0-0.1c0.1-0.3,0.2-0.6,0.4-0.8c0.2-0.5,0.6-0.6,0.8-0.6c0,0,0.1,0,0.2,0     c0.3,0,0.6,0.2,0.8,0.4c0.2,0.2,0.4,0.5,0.4,0.8c0,0.5,0,0.9-0.3,1.2c-0.2,0.3-0.4,0.5-0.7,0.7c-0.2,0.1-0.3,0.2-0.5,0.3     c-0.2,0.1-0.4,0.2-0.6,0.2c-0.1,0-0.1,0.1-0.2,0.1c0.5,0.2,1,0.4,1.4,0.7c0.1,0,0.2,0.1,0.3,0.1c0.1,0.1,0.2,0.1,0.3,0.2     c0.2,0.1,0.4,0.3,0.6,0.4l0.5,0.4c0.3,0.2,0.6,0.5,0.9,0.8c0.3,0.3,0.5,0.6,0.5,0.8C274.7,83.6,274.6,83.7,274.6,83.9z"/>
			<linearGradient id="SVGID_10_" gradientUnits="userSpaceOnUse" x1="164.48" y1="47.5992" x2="326.2738" y2="47.5992">
				<stop offset="0" style="stop-color:#BCA061"/>
				<stop offset="0.1196" style="stop-color:#B1975D"/>
				<stop offset="0.4434" style="stop-color:#9A8554"/>
				<stop offset="0.7449" style="stop-color:#8B794F"/>
				<stop offset="1" style="stop-color:#86754D"/>
			</linearGradient>
			<path class="st10" d="M245.2,47.9l0.1-0.1c0,0,0.1,0,0.1-0.1l0.1,0c0,0,0.1-0.1,0.1-0.1l0.1,0c0.1-0.1,0.1-0.1,0.2-0.1     c-0.6-1.1-1.2-1.9-1.9-2.3c-0.7-0.4-1.3-0.5-1.8-0.3c0,0-0.1,0-0.1,0.1c0,0,0,0,0,0c0,0,0,0.1,0,0.1c0,0,0.1,0.1,0.2,0.1     c0,0,0,0,0.1,0c0.1,0,0.2,0.1,0.3,0.2c0.1,0.1,0.3,0.3,0.4,0.5c0,0.1,0.1,0.1,0.1,0.2c0.1,0.2,0.1,0.5,0.1,0.9     c0,0.4-0.3,0.7-0.6,0.8c0,0-0.1,0.1-0.1,0.1c0,0-0.1,0-0.1,0c-0.2,0-0.4,0.1-0.6,0c-0.2,0-0.4,0-0.6-0.1     c-0.5-0.1-0.9-0.1-1.2,0.1c-0.6,0.3-0.6,0.6-0.7,0.7c0,0.3,0,0.7,0.2,1c0,0,0,0.1,0.1,0.1c0,0.1,0.2,0.4,0.3,0.4     c0.2,0,0.5-0.1,0.9-0.3c0,0,0,0,0,0c0,0,0-0.1,0-0.2c0.1-0.1,0.2-0.2,0.3-0.3c0.1-0.1,0.3-0.1,0.5-0.1c0.1,0,0.2,0,0.3,0     c0.3,0.1,0.5,0.2,0.6,0.5c0,0.1,0.1,0.2,0.1,0.4C243.4,49.3,244.2,48.5,245.2,47.9z"/>
			<linearGradient id="SVGID_11_" gradientUnits="userSpaceOnUse" x1="164.48" y1="69.3531" x2="326.2738" y2="69.3531">
				<stop offset="0" style="stop-color:#BCA061"/>
				<stop offset="0.1196" style="stop-color:#B1975D"/>
				<stop offset="0.4434" style="stop-color:#9A8554"/>
				<stop offset="0.7449" style="stop-color:#8B794F"/>
				<stop offset="1" style="stop-color:#86754D"/>
			</linearGradient>
			<path class="st11" d="M240.9,16c-29.4,0-53.4,23.9-53.4,53.4c0,29.4,23.9,53.4,53.4,53.4c29.4,0,53.4-24,53.4-53.4     C294.3,39.9,270.3,16,240.9,16z M240.9,119.3c-27.5,0-49.9-22.4-49.9-49.9c0-27.5,22.4-49.9,49.9-49.9c27.5,0,50,22.4,50,49.9     C290.9,96.9,268.4,119.3,240.9,119.3z"/>
			<linearGradient id="SVGID_12_" gradientUnits="userSpaceOnUse" x1="164.48" y1="69.8889" x2="326.2738" y2="69.8889">
				<stop offset="0" style="stop-color:#BCA061"/>
				<stop offset="0.1196" style="stop-color:#B1975D"/>
				<stop offset="0.4434" style="stop-color:#9A8554"/>
				<stop offset="0.7449" style="stop-color:#8B794F"/>
				<stop offset="1" style="stop-color:#86754D"/>
			</linearGradient>
			<path class="st12" d="M304,53.8c-1.9-2.8-3.7-5.4-4.8-8.1c-1.2-2.8-1.8-6.2-2.5-9.5c-1.1-5.8-2.3-11.8-6.4-15.8     c-4.1-4.1-10-5.2-15.8-6.4c-3.3-0.6-6.6-1.3-9.5-2.5c-2.7-1.1-5.3-2.9-8.1-4.8C252.1,3.5,247,0,240.9,0c-6.1,0-11.1,3.5-16.1,6.8     c-2.8,1.9-5.4,3.7-8.1,4.8c-2.8,1.2-6.2,1.8-9.5,2.5c-5.8,1.1-11.8,2.3-15.8,6.4c-4.1,4.1-5.2,10.1-6.4,15.8     c-0.6,3.3-1.3,6.6-2.5,9.5c-1.1,2.7-2.9,5.3-4.8,8.1c-3.4,4.9-6.9,10-6.9,16.1c0,6.1,3.5,11.1,6.9,16.1c1.9,2.8,3.7,5.4,4.8,8.1     c1.2,2.8,1.8,6.2,2.5,9.5c1.1,5.8,2.3,11.8,6.4,15.8c4.1,4.1,10.1,5.2,15.8,6.4c3.3,0.6,6.6,1.3,9.4,2.5c2.7,1.1,5.3,2.9,8.1,4.8     c4.9,3.4,10,6.8,16.1,6.8c6.1,0,11.2-3.5,16.1-6.8c2.8-1.9,5.4-3.7,8.1-4.8c2.8-1.2,6.2-1.8,9.5-2.5c5.8-1.1,11.7-2.3,15.8-6.4     c4.1-4.1,5.2-10,6.4-15.8c0.6-3.3,1.3-6.6,2.5-9.5c1.1-2.7,2.9-5.3,4.8-8.1c3.4-4.9,6.8-10,6.8-16.1     C310.8,63.8,307.3,58.8,304,53.8z M240.9,126.3c-31.4,0-56.9-25.5-56.9-56.9c0-31.4,25.5-56.9,56.9-56.9s56.9,25.5,56.9,56.9     C297.8,100.7,272.3,126.3,240.9,126.3z"/>
		</g>
	</g>
	<g>
		<g>
			<g>
				<g>
					<path class="st13" d="M177.8,303.6c4.4,6.2,8.6,11.1,12.8,15.8c42.6,41.7,72-4.3,72.4-4.6C239,327.7,211.6,330.2,177.8,303.6z"/>
				</g>
				<path class="st13" d="M157.3,283.6c16,13.5,66.2,63.9,123,15.9c11.4-9.6,21.2-17,33.8-22C278.3,270.1,231.1,329.2,157.3,283.6z"/>
			</g>
			<g>
				<path class="st13" d="M276.4,347.9l14.3-32.2c1-2.2,2.8-3.6,5.3-3.6l0.5,0c2.4,0,4.2,1.3,5.2,3.6l14.3,32.2      c0.3,0.6,0.4,1.2,0.4,1.8c0,2.4-1.8,4.3-4.3,4.3c-2.1,0-3.5-1.2-4.3-3.1l-2.7-6.4l-18,0l-2.9,6.7c-0.8,1.8-2.3,2.8-4.1,2.8      c-2.3,0-4.2-1.9-4.2-4.2C275.8,349.2,276.1,348.5,276.4,347.9 M301.7,336.5L296,323l-5.7,13.5L301.7,336.5z"/>
				<path class="st13" d="M343.4,349.3c-1-0.7-1.7-2-1.7-3.4c0-2.3,1.9-4.2,4.2-4.2c1.2,0,2,0.4,2.6,0.8c3.1,2.3,6.5,3.7,10.5,3.7      c3.7,0,5.9-1.4,5.9-3.9v-0.1c0-2.3-1.4-3.4-8.2-5.2c-8.2-2.1-13.6-4.4-13.6-12.5v-0.1c0-7.4,6-12.3,14.3-12.3      c5,0,9.3,1.3,13,3.6c1,0.6,2,1.8,2,3.6c0,2.3-1.9,4.1-4.2,4.1c-0.9,0-1.6-0.2-2.3-0.6c-3-1.7-5.8-2.7-8.6-2.7      c-3.5,0-5.3,1.6-5.3,3.6v0.1c0,2.7,1.8,3.6,8.8,5.4c8.3,2.2,13,5.2,13,12.3v0.1c0,8.1-6.2,12.7-15,12.7      C353.4,354.3,348,352.6,343.4,349.3"/>
				<path class="st13" d="M324.4,316.9c0-2.5,2-4.5,4.5-4.5c2.5,0,4.5,2,4.5,4.5v32.6c0,2.5-2,4.5-4.5,4.5c-2.5,0-4.5-2-4.5-4.5      L324.4,316.9z"/>
			</g>
		</g>
		<g>
			<path class="st0" d="M112.9,285.7c1.4-1.9,2.8-2.8,4.4-2.8c0.7,0,1.4,0.2,2,0.5c0.6,0.3,1.2,0.8,1.7,1.4c0.5,0.6,0.9,1.3,1.2,2.1     c0.3,0.9,0.4,1.8,0.4,2.9c0,2.5-0.8,4.5-2.5,6c-1.4,1.3-3,2-4.7,2c-1.6,0-3.3-0.6-5-1.8v-14.5c0-1.6,0-2.5-0.1-2.9     c-0.1-0.4-0.2-0.6-0.3-0.7c-0.2-0.1-0.4-0.2-0.6-0.2c-0.3,0-0.7,0.1-1.1,0.2l-0.2-0.5l4.2-1.7h0.7V285.7z M112.9,286.7v8.4     c1,1,2.1,1.5,3.3,1.5c0.5,0,0.9-0.1,1.4-0.4c0.4-0.3,0.9-0.7,1.2-1.2c0.4-0.5,0.7-1.1,0.9-1.9c0.2-0.7,0.3-1.6,0.3-2.6     c0-0.9-0.1-1.7-0.3-2.4c-0.2-0.7-0.5-1.3-0.9-1.7c-0.4-0.5-0.8-0.8-1.3-1.1c-0.5-0.2-1-0.4-1.5-0.4c-0.2,0-0.5,0-0.7,0.1     c-0.2,0.1-0.5,0.1-0.7,0.2c-0.2,0.1-0.5,0.3-0.8,0.5C113.5,286.1,113.2,286.3,112.9,286.7z"/>
			<path class="st0" d="M127,283.3h6.5v0.6h-0.3c-0.5,0-0.8,0.1-1,0.3c-0.2,0.2-0.3,0.4-0.3,0.7c0,0.4,0.2,0.9,0.5,1.7l3.4,7     l3.1-7.7c0.2-0.4,0.3-0.8,0.3-1.2c0-0.1,0-0.2,0-0.3c0-0.1-0.1-0.2-0.2-0.2c-0.1-0.1-0.2-0.1-0.4-0.2c-0.2,0-0.4,0-0.7,0v-0.6     h4.6v0.6c-0.3,0-0.5,0.1-0.7,0.1c-0.2,0-0.3,0.1-0.5,0.3c-0.1,0.1-0.3,0.3-0.4,0.6c-0.1,0.3-0.3,0.6-0.5,1.1l-5.7,13.9     c-0.3,0.7-0.6,1.3-1,1.8c-0.4,0.5-0.8,0.9-1.2,1.3c-0.4,0.3-0.8,0.6-1.3,0.8c-0.4,0.2-0.9,0.3-1.3,0.3c-0.3,0-0.6,0-0.8-0.1     c-0.3-0.1-0.5-0.2-0.7-0.4c-0.2-0.2-0.3-0.3-0.4-0.5c-0.1-0.2-0.2-0.4-0.2-0.7c0-0.4,0.1-0.8,0.4-1c0.3-0.3,0.7-0.4,1.1-0.4     c0.1,0,0.3,0,0.5,0.1c0.2,0.1,0.4,0.1,0.7,0.2c0.2,0.1,0.4,0.1,0.6,0.2c0.2,0.1,0.3,0.1,0.3,0.1c0.2,0,0.3,0,0.5-0.1     c0.2-0.1,0.3-0.2,0.5-0.4c0.2-0.2,0.4-0.4,0.5-0.7c0.2-0.3,0.4-0.7,0.5-1.1l1-2.4l-5-10.5c0-0.1-0.1-0.3-0.2-0.4     c-0.1-0.2-0.2-0.4-0.4-0.6c-0.1-0.2-0.3-0.4-0.4-0.5c-0.1-0.2-0.2-0.3-0.3-0.3c-0.2-0.2-0.6-0.3-1.1-0.4V283.3z"/>
		</g>
	</g>
</g>
</svg>